<svg xmlns="http://www.w3.org/2000/svg" viewBox="0 0 1200 600" width="1200" height="600" preserveAspectRatio="xMidYMid">
    <defs>
        <linearGradient id="c1d" x1="0" x2="1">
            <stop offset="0%" stop-color="var(--color-primary, #2563eb)" />
            <stop offset="100%" stop-color="var(--color-danger, #dc2626)" />
        </linearGradient>
        <linearGradient id="c2d" x1="0" x2="1">
            <stop offset="0%" stop-color="rgba(37,99,235,0.92)" />
            <stop offset="100%" stop-color="rgba(220,38,38,0.9)" />
        </linearGradient>
        <filter id="blurD" x="-20%" y="-20%" width="140%" height="140%">
            <feGaussianBlur stdDeviation="20" />
        </filter>
    </defs>

    <rect width="100%" height="100%" fill="transparent" />

    <!-- large fluid shape -->
    <path id="fluidA" d="M60,400 C120,320 200,260 340,240 C490,220 620,260 760,270 C900,280 980,320 1140,300 L1140,600 L60,600 Z" fill="url(#c1d)" opacity="0.95" filter="url(#blurD)">
        <animate attributeName="d" dur="36s" repeatCount="indefinite" values="M60,400 C120,320 200,260 340,240 C490,220 620,260 760,270 C900,280 980,320 1140,300 L1140,600 L60,600 Z; M60,420 C120,340 210,280 350,260 C500,240 630,280 770,290 C910,300 990,340 1140,320 L1140,600 L60,600 Z; M60,400 C120,320 200,260 340,240 C490,220 620,260 760,270 C900,280 980,320 1140,300 L1140,600 L60,600 Z" />
    </path>

    <!-- middle soft blob -->
    <path id="blobB" d="M200,120 C300,40 420,40 540,100 C660,160 760,160 880,120 C980,90 1060,120 1120,160 L1120,0 L200,0 Z" fill="url(#c2d)" opacity="0.9">
        <animateTransform attributeName="transform" type="translate" dur="30s" values="0,0;10,8;0,0" repeatCount="indefinite" />
    </path>

    <!-- geometric line accents drifting -->
    <g stroke="#ffffff" stroke-opacity="0.08" stroke-width="2" fill="none">
        <path id="line1" d="M80 520 C260 480 420 500 600 480">
            <animate attributeName="d" dur="28s" values="M80 520 C260 480 420 500 600 480; M100 540 C280 500 440 520 620 500; M80 520 C260 480 420 500 600 480" repeatCount="indefinite" />
        </path>
    </g>

    <!-- sparkles -->
    <g fill="#fff" opacity="0.9">
        <circle cx="920" cy="80" r="2">
            <animate attributeName="cy" values="80;86;80" dur="6s" repeatCount="indefinite" />
        </circle>
        <circle cx="980" cy="140" r="1.4">
            <animate attributeName="cx" values="980;974;980" dur="8s" repeatCount="indefinite" />
        </circle>
    </g>
</svg>