<svg xmlns="http://www.w3.org/2000/svg" viewBox="0 0 1200 600" width="1200" height="600" preserveAspectRatio="xMidYMid">
    <defs>
        <linearGradient id="c1l" x1="0" x2="1">
            <stop offset="0%" stop-color="var(--color-primary, #2563eb)" stop-opacity="0.18" />
            <stop offset="100%" stop-color="var(--color-danger, #dc2626)" stop-opacity="0.12" />
        </linearGradient>
        <linearGradient id="c2l" x1="0" x2="1">
            <stop offset="0%" stop-color="rgba(37,99,235,0.22)" />
            <stop offset="100%" stop-color="rgba(220,38,38,0.18)" />
        </linearGradient>
    </defs>

    <rect width="100%" height="100%" fill="transparent" />

    <path id="fluidAl" d="M60,400 C120,320 200,260 340,240 C490,220 620,260 760,270 C900,280 980,320 1140,300 L1140,600 L60,600 Z" fill="url(#c1l)" opacity="0.95">
        <animate attributeName="d" dur="34s" repeatCount="indefinite" values="M60,400 C120,320 200,260 340,240 C490,220 620,260 760,270 C900,280 980,320 1140,300 L1140,600 L60,600 Z; M60,420 C120,340 210,280 350,260 C500,240 630,280 770,290 C910,300 990,340 1140,320 L1140,600 L60,600 Z; M60,400 C120,320 200,260 340,240 C490,220 620,260 760,270 C900,280 980,320 1140,300 L1140,600 L60,600 Z" />
    </path>

    <path id="blobBl" d="M200,120 C300,40 420,40 540,100 C660,160 760,160 880,120 C980,90 1060,120 1120,160 L1120,0 L200,0 Z" fill="url(#c2l)" opacity="0.9">
        <animateTransform attributeName="transform" type="translate" dur="26s" values="0,0;-8,6;0,0" repeatCount="indefinite" />
    </path>

    <g stroke="#2563eb" stroke-opacity="0.06" stroke-width="1.6" fill="none">
        <path d="M80 520 C260 480 420 500 600 480">
            <animate attributeName="d" dur="20s" values="M80 520 C260 480 420 500 600 480; M92 528 C272 488 432 510 612 490; M80 520 C260 480 420 500 600 480" repeatCount="indefinite" />
        </path>
    </g>
</svg>